<svg width="41" height="29" xmlns="http://www.w3.org/2000/svg"><defs><linearGradient x1="23.065%" y1="94.37%" x2="66.365%" y2="28.887%" id="a"><stop stop-color="#FFEDE1" stop-opacity=".894" offset="0%"/><stop stop-color="#FFDCC5" offset="100%"/></linearGradient></defs><g fill="none" fill-rule="evenodd"><path d="M6.0595,12.2500056 L6.0595,5.1536 C6.0595,4.4106 5.4575,3.8076 4.7135,3.8076 C3.9705,3.8076 3.3675,4.4106 3.3675,5.1536 L3.3675,12.3867615 C3.34475243,13.4032795 2.7752,13.4376945 2.7752,12.3234 C2.7752,12.3130669 2.77509939,12.3029498 2.7749,12.2930458 L2.7749,7.3675 C2.7749,6.6245 2.1729,6.0215 1.4289,6.0215 C0.6859,6.0215 0.0829,6.6245 0.0829,7.3675 L0.0829,13.4053047 C-0.653605185,22.9948085 3.7502,24.5004 3.7502,24.5004 L10.5172,24.5004 C12.8232,23.9874 15.3202,20.7754 15.8332,18.7254 C16.3452,16.6754 17.8832,13.8564 18.6522,12.8314 C19.4202,11.8064 17.3712,10.7814 16.3452,11.2944 C15.4212,11.7564 14.1722,12.9564 13.5592,14.3154 C12.7531296,16.0799236 12.5070323,14.1037967 12.4555,13.5416762 L12.4555,4.4158 C12.4555,3.6728 11.8525,3.0698 11.1095,3.0698 C10.3665,3.0698 9.7635,3.6728 9.7635,4.4158 L9.7635,12.25952 C9.54102927,12.3150664 9.3442,12.1714 9.3442,12.1714 C9.3442,12.1714 9.34418572,12.1713896 9.34415722,12.1713688 L9.3442,2.2684 C9.3442,1.5254 8.7412,0.9224 7.9982,0.9224 C7.2552,0.9224 6.6522,1.5254 6.6522,2.2684 L6.6522,12.1714005 C6.65219997,12.656983 6.07456782,12.6633163 6.0595,12.2500056 Z" fill="url(#a)" transform="translate(0 4)"/><path d="M18.8166 12.4312C18.3136 12.4142 17.1386 13.8242 16.9036 14.2942 17.3736 14.7642 17.5396 14.6392 17.5396 14.6392 17.5396 14.6392 18.7836 12.8842 18.8166 12.4312M12.07 6.2192L10.15 6.2192 10.15 4.2992C10.15 3.7682 10.579 3.3382 11.11 3.3382 11.64 3.3382 12.07 3.7682 12.07 4.2992L12.07 6.2192zM9.0163 3.9863L7.0963 3.9863 7.0963 2.0663C7.0963 1.5363 7.5253 1.1063 8.0563 1.1063 8.5863 1.1063 9.0163 1.5363 9.0163 2.0663L9.0163 3.9863zM5.8 6.8433L3.88 6.8433 3.88 4.9233C3.88 4.3933 4.31 3.9633 4.84 3.9633 5.37 3.9633 5.8 4.3933 5.8 4.9233L5.8 6.8433zM2.3654 9.0288L.4454 9.0288.4454 7.1088C.4454 6.5788.8754 6.1488 1.4054 6.1488 1.9354 6.1488 2.3654 6.5788 2.3654 7.1088L2.3654 9.0288z" fill="#FFC197" transform="translate(0 4)"/><path d="M6.0595,12.2500056 L6.0595,5.1536 C6.0595,4.4106 5.4575,3.8076 4.7135,3.8076 C3.9705,3.8076 3.3675,4.4106 3.3675,5.1536 L3.3675,12.3867615 C3.34475243,13.4032795 2.7752,13.4376945 2.7752,12.3234 C2.7752,12.3130669 2.77509939,12.3029498 2.7749,12.2930458 L2.7749,7.3675 C2.7749,6.6245 2.1729,6.0215 1.4289,6.0215 C0.6859,6.0215 0.0829,6.6245 0.0829,7.3675 L0.0829,13.4053047 C-0.653605185,22.9948085 3.7502,24.5004 3.7502,24.5004 L10.5172,24.5004 C12.8232,23.9874 15.3202,20.7754 15.8332,18.7254 C16.3452,16.6754 17.8832,13.8564 18.6522,12.8314 C19.4202,11.8064 17.3712,10.7814 16.3452,11.2944 C15.4212,11.7564 14.1722,12.9564 13.5592,14.3154 C12.7531296,16.0799236 12.5070323,14.1037967 12.4555,13.5416762 L12.4555,4.4158 C12.4555,3.6728 11.8525,3.0698 11.1095,3.0698 C10.3665,3.0698 9.7635,3.6728 9.7635,4.4158 L9.7635,12.25952 C9.54102927,12.3150664 9.3442,12.1714 9.3442,12.1714 C9.3442,12.1714 9.34418572,12.1713896 9.34415722,12.1713688 L9.3442,2.2684 C9.3442,1.5254 8.7412,0.9224 7.9982,0.9224 C7.2552,0.9224 6.6522,1.5254 6.6522,2.2684 L6.6522,12.1714005 C6.65219997,12.656983 6.07456782,12.6633163 6.0595,12.2500056 Z" fill="url(#a)" transform="matrix(-1 0 0 1 41 4)"/><path d="M18.8166 12.4312C18.3136 12.4142 17.1386 13.8242 16.9036 14.2942 17.3736 14.7642 17.5396 14.6392 17.5396 14.6392 17.5396 14.6392 18.7836 12.8842 18.8166 12.4312M12.07 6.2192L10.15 6.2192 10.15 4.2992C10.15 3.7682 10.579 3.3382 11.11 3.3382 11.64 3.3382 12.07 3.7682 12.07 4.2992L12.07 6.2192zM9.0163 3.9863L7.0963 3.9863 7.0963 2.0663C7.0963 1.5363 7.5253 1.1063 8.0563 1.1063 8.5863 1.1063 9.0163 1.5363 9.0163 2.0663L9.0163 3.9863zM5.8 6.8433L3.88 6.8433 3.88 4.9233C3.88 4.3933 4.31 3.9633 4.84 3.9633 5.37 3.9633 5.8 4.3933 5.8 4.9233L5.8 6.8433zM2.3654 9.0288L.4454 9.0288.4454 7.1088C.4454 6.5788.8754 6.1488 1.4054 6.1488 1.9354 6.1488 2.3654 6.5788 2.3654 7.1088L2.3654 9.0288z" fill="#FFC197" transform="matrix(-1 0 0 1 41 4)"/><path stroke="#FFCD02" stroke-linecap="round" stroke-linejoin="round" d="M20.8205 2L20.8205.5 20.8205 2 20.8205 3.5zM28.3205 2.5L29.3815 1.439 28.3205 2.5 27.2595 3.561zM13.3205 2.5L12.2595 1.439 13.3205 2.5 14.3815 3.561z"/></g></svg>